<?xml version="1.0" encoding="utf-8"?>
<!-- Generator: Adobe Illustrator 24.3.0, SVG Export Plug-In . SVG Version: 6.00 Build 0)  -->
<svg version="1.1" id="Layer_1" xmlns="http://www.w3.org/2000/svg" xmlns:xlink="http://www.w3.org/1999/xlink" x="0px" y="0px"
	 viewBox="0 0 800 800" enable-background="new 0 0 800 800" xml:space="preserve">
<g>
	<path d="M137.504,748.279h524.992c46.845,0,84.956-38.112,84.956-84.958v-18.626c0-9.247-7.524-16.768-16.768-16.768H705.16
		V305.149c0-19.669-16.003-35.67-35.67-35.67H130.51c-19.667,0-35.67,16.001-35.67,35.67v322.778H71.694
		c-10.558,0-19.146,8.588-19.146,19.144v16.25C52.548,710.168,90.659,748.279,137.504,748.279z M113.393,305.149
		c0-9.437,7.678-17.117,17.117-17.117h538.98c9.44,0,17.117,7.68,17.117,17.117v322.778H521.89H278.984H113.393V305.149z
		 M284.623,646.48h230.753v0.351c0,10.266-8.352,18.619-18.621,18.619H303.244c-10.268,0-18.621-8.352-18.621-18.619V646.48z
		 M71.101,647.071c0-0.303,0.29-0.591,0.593-0.591H94.84h171.23v0.351c0,20.496,16.678,37.172,37.174,37.172h193.511
		c20.496,0,37.174-16.676,37.174-37.172v-0.351h171.23h23.739v16.841c0,36.617-29.786,66.405-66.403,66.405H137.504
		c-36.617,0-66.403-29.789-66.403-66.405V647.071z"/>
	<path d="M655.054,569.088V348.11c0-17.452-14.2-31.652-31.657-31.652H176.603c-17.452,0-31.652,14.2-31.652,31.652v220.979
		c0,17.455,14.2,31.655,31.652,31.655h446.794C640.854,600.743,655.054,586.543,655.054,569.088z M163.503,569.088V348.11
		c0-7.222,5.875-13.099,13.099-13.099h446.794c7.225,0,13.104,5.877,13.104,13.099v220.979c0,7.225-5.879,13.102-13.104,13.102
		H176.603C169.378,582.19,163.503,576.313,163.503,569.088z"/>
	<path d="M583.224,138.053c-24.221,22.948-48.442,45.896-72.664,68.845c-8.685,8.229,4.45,21.332,13.119,13.119
		c24.222-22.948,48.442-45.896,72.664-68.844C605.028,142.943,591.893,129.839,583.224,138.053z"/>
	<path d="M600.615,126.516c0,4.792,3.885,8.677,8.677,8.677c4.792,0,8.677-3.885,8.677-8.677c0-4.792-3.885-8.677-8.677-8.677
		C604.5,117.839,600.615,121.724,600.615,126.516z"/>
	<path d="M216.777,138.053c-8.665-8.21-21.808,4.887-13.119,13.119c24.221,22.948,48.442,45.896,72.663,68.844
		c8.666,8.21,21.809-4.887,13.119-13.119C265.219,183.949,240.998,161.001,216.777,138.053z"/>
	<path d="M182.031,126.516c0,4.792,3.885,8.677,8.678,8.677c4.792,0,8.677-3.885,8.677-8.677c0-4.792-3.885-8.677-8.677-8.677
		C185.917,117.839,182.031,121.724,182.031,126.516z"/>
	<path d="M389.539,187.101c0.11,11.932,18.663,11.961,18.553,0c-0.307-33.365-0.614-66.729-0.921-100.094
		c-0.11-11.932-18.663-11.961-18.553,0C388.925,120.372,389.232,153.737,389.539,187.101z"/>
	<path d="M404.284,66.308c3.264-3.509,3.065-8.999-0.444-12.263c-3.509-3.264-8.999-3.065-12.263,0.444
		c-3.264,3.509-3.065,9,0.444,12.263C395.529,70.016,401.02,69.817,404.284,66.308z"/>
	<path d="M475.504,416.162c20.422,42.204,8.142,94.068-33.162,118.573c-22.299,13.23-49.178,15.835-73.127,8.425
		c11.699-26.833,23.397-53.666,35.097-80.498c0.055-0.125,0.071-0.258,0.121-0.384c0.706-1.299,1.146-2.751,1.146-4.298
		c0-29.401,0-58.803,0-88.204c13.026,1.366,25.995,5.339,37.99,12.141c10.401,5.898,19.761-10.125,9.364-16.02
		c-48.85-27.699-110.879-17.45-144.39,29.043c-29.953,41.557-25.807,100.066,9.214,137.295
		c34.971,37.174,93.556,44.387,136.568,16.952c48.493-30.931,61.618-91.929,37.2-142.387
		C486.325,396.053,470.321,405.45,475.504,416.162z M321.116,409.321c15.485-23.992,39.945-37.264,65.909-39.686
		c0,26.356,0,52.713,0,79.068c-26.506,0-53.012,0-79.518,0C308.861,434.953,313.305,421.423,321.116,409.321z M307.559,467.256
		c24.883,0,49.765,0,74.647,0c-9.969,22.866-19.938,45.731-29.908,68.597c-7.845-4.366-15.122-9.906-21.422-16.739
		C317.437,504.539,309.569,486.195,307.559,467.256z"/>
	<path d="M468.093,398.988c4.792,0,8.677-3.885,8.677-8.677c0-4.792-3.885-8.677-8.677-8.677c-4.792,0-8.677,3.885-8.677,8.677
		C459.416,395.103,463.3,398.988,468.093,398.988z"/>
	<path fill="#58C7DE" d="M71.101,647.071c0-0.303,0.29-0.591,0.593-0.591H94.84h171.23v0.351c0,20.496,16.678,37.172,37.174,37.172
		h193.511c20.496,0,37.174-16.676,37.174-37.172v-0.351h171.23h23.739v16.841c0,36.617-29.786,66.405-66.403,66.405H137.504
		c-36.617,0-66.403-29.789-66.403-66.405V647.071z"/>
	<path fill="#F16235" d="M284.623,646.48h230.753v0.351c0,10.266-8.352,18.619-18.621,18.619H303.244
		c-10.268,0-18.621-8.352-18.621-18.619V646.48z"/>
	<path fill="#F16235" d="M321.116,409.321c15.485-23.992,39.945-37.264,65.909-39.686c0,26.356,0,52.713,0,79.068
		c-26.506,0-53.012,0-79.518,0C308.861,434.953,313.305,421.423,321.116,409.321z"/>
	<path fill="#58C7DE" d="M307.559,467.256c24.883,0,49.765,0,74.647,0c-9.969,22.866-19.938,45.731-29.908,68.597
		c-7.845-4.366-15.122-9.906-21.422-16.739C317.437,504.539,309.569,486.195,307.559,467.256z"/>
</g>
</svg>
