<?xml version="1.0" encoding="iso-8859-1"?>
<!-- Generator: Adobe Illustrator 19.0.0, SVG Export Plug-In . SVG Version: 6.00 Build 0)  -->
<svg xmlns="http://www.w3.org/2000/svg" xmlns:xlink="http://www.w3.org/1999/xlink" version="1.1" id="Layer_1" x="0px" y="0px" viewBox="0 0 512.002 512.002" style="enable-background:new 0 0 512.002 512.002;" xml:space="preserve">
<path style="fill:#FF9900;" d="M491.991,312.242c0,32.758-23.277,60.08-54.199,66.334c1.179,4.814,1.824,9.852,1.824,15.026  c0,34.792-28.204,62.996-62.996,62.996c-2.097,0-4.157-0.112-6.204-0.31c-4.64,27.186-28.291,47.87-56.793,47.87  c-31.827,0-57.623-25.797-57.623-57.623c0,31.827-25.797,57.623-57.623,57.623c-28.502,0-52.151-20.684-56.793-47.87  c-2.047,0.199-4.108,0.31-6.204,0.31c-29.246,0-53.839-19.927-60.924-46.953c-1.352-5.124-2.072-10.497-2.072-16.043  c0-4.219,0.434-8.351,1.229-12.347c0.173-0.906,0.385-1.799,0.596-2.68c-30.921-6.254-54.199-33.577-54.199-66.334  c0-23.439,11.924-44.098,30.027-56.246c-18.104-12.148-30.027-32.794-30.027-56.234c0-32.77,23.277-60.092,54.199-66.334  c-1.179-4.826-1.824-9.852-1.824-15.038c0-34.792,28.204-62.996,62.996-62.996c2.097,0,4.157,0.112,6.204,0.31  c4.64-27.174,28.291-47.87,56.793-47.87C230.204,7.834,256,33.63,256,65.457c0-31.827,25.797-57.623,57.623-57.623  c28.502,0,52.151,20.696,56.793,47.87c2.047-0.199,4.108-0.31,6.204-0.31c34.792,0,62.996,28.204,62.996,62.996  c0,5.187-0.646,10.212-1.824,15.038c30.921,6.241,54.199,33.564,54.199,66.334c0,23.439-11.924,44.087-30.027,56.234  C480.067,268.143,491.991,288.803,491.991,312.242z"/>
<g>
	<path style="fill:#FF8800;" d="M87.684,267.437c0,0-7.097,21.467-59.051,11.738c5.037-8.983,12.073-16.702,20.498-22.533   l1.924,0.038C61.614,263.478,74.197,267.437,87.684,267.437z"/>
	<path style="fill:#FF8800;" d="M82.212,409.051c-2.83,0.285-5.409,0.484-7.755,0.596c-1.352-5.124-2.072-10.497-2.072-16.043   c0-4.219,0.434-8.351,1.229-12.347c1.948-1.377,3.213-2.196,3.213-2.196c3.536,0.558,7.172,0.856,10.858,0.856   c22.075,0,41.679-10.559,54.037-26.914C141.721,353.003,143.633,402.846,82.212,409.051z"/>
	<path style="fill:#FF8800;" d="M256,408.159c5.572,2.669,11.76,4.288,18.32,4.593c26.241,1.22,48.501-19.062,49.722-45.303   c0,0,9.724,78.603-68.042,78.603V408.159z"/>
	<path style="fill:#FF8800;" d="M257.692,460.41c6.211,25.123,28.888,43.749,55.932,43.749c28.5,0,52.149-20.682,56.792-47.866   l-0.136-0.008c-15.989-1.599-30.216-9.175-40.414-20.462c0,0-4.144,19.449,5.162,31.236   C335.028,467.059,303.239,494.86,257.692,460.41z"/>
	<path style="fill:#FF8800;" d="M483.995,280.338c-5.22-9.744-12.749-18.064-21.863-24.221l-0.822,0.318   c-10.633,6.955-23.343,10.999-36.997,10.999c0,0,13.702,20.328,54.648,13.814C480.714,280.967,482.376,280.659,483.995,280.338z"/>
	<path style="fill:#FF8800;" d="M438.112,380.065l-2.052-1.16c-3.815,0.668-7.74,1.016-11.746,1.016   c-37.377,0-67.677-30.3-67.677-67.677c0,0-29.451,88.639,79.423,99.806c0.268,0.027,0.518,0.052,0.784,0.079   c1.799-5.858,2.773-12.078,2.773-18.526C439.616,388.955,439.071,384.429,438.112,380.065z"/>
	<path style="fill:#FF8800;" d="M254.76,189.119h-55.653c-21.902,0-39.658-17.755-39.658-39.658v34.38   c0,16.962,13.75,30.712,30.712,30.712h64.599V189.119z"/>
	<path style="fill:#FF8800;" d="M254.76,320.206c-30.405,15.38-67.52,3.201-82.9-27.204c0,0,2.011,58.352,82.9,58.352V320.206z"/>
	<path style="fill:#FF8800;" d="M257.242,226.932c11.919,23.564,40.684,33.002,64.248,21.083c0,0-19.964,42.021-64.248,19.419   V226.932z"/>
</g>
<path d="M356.636,304.407c-4.329,0-7.837,3.509-7.837,7.837c0,19.063,7.123,37.267,20.058,51.256  c1.545,1.671,3.647,2.516,5.756,2.516c1.903,0,3.811-0.69,5.319-2.083c3.178-2.938,3.372-7.896,0.434-11.075  c-10.249-11.083-15.893-25.508-15.893-40.614C364.473,307.916,360.965,304.407,356.636,304.407z"/>
<path d="M474.703,256.001c15.891-14.23,25.125-34.586,25.125-56.244c0-33.197-21.868-62.373-52.988-72.091  c0.406-3.077,0.611-6.177,0.611-9.274c0-8.643-1.541-17.09-4.581-25.106c-1.535-4.047-6.06-6.084-10.106-4.55  c-4.047,1.535-6.083,6.059-4.549,10.106c2.364,6.234,3.562,12.811,3.562,19.548c0,4.42-0.537,8.85-1.593,13.169  c-0.508,2.073-0.149,4.263,0.995,6.065c1.143,1.801,2.973,3.059,5.064,3.482c27.762,5.612,47.913,30.278,47.913,58.649  c0,19.988-9.929,38.581-26.56,49.735c-0.098,0.066-0.478,0.323-0.573,0.386c-7.788,5.094-16.594,8.258-25.791,9.318  c1.36-3.148,2.572-6.381,3.588-9.709c7.126-23.347,4.734-48.073-6.735-69.621c-2.033-3.821-6.777-5.271-10.601-3.236  c-3.82,2.033-5.268,6.779-3.235,10.601c9.502,17.852,11.483,38.338,5.58,57.681c-5.905,19.343-18.989,35.229-36.841,44.731  c-3.821,2.033-5.269,6.779-3.236,10.601c1.41,2.648,4.12,4.157,6.925,4.157c1.241,0,2.503-0.296,3.675-0.921  c13.012-6.926,23.906-16.676,32.08-28.443c0.605,0.149,1.233,0.237,1.884,0.237c13.146,0,25.925-3.39,37.252-9.825  c14.217,11.322,22.589,28.464,22.589,46.798c0,28.371-20.15,53.037-47.913,58.649c-0.264,0.053-1.28,0.249-1.532,0.293  c-3.407,0.596-6.905,0.898-10.396,0.898c-6.491,0-12.87-1.031-18.961-3.065c-4.109-1.37-8.545,0.847-9.915,4.952  c-1.371,4.105,0.847,8.545,4.952,9.915c7.694,2.568,15.744,3.87,23.924,3.87c2.371,0,4.744-0.12,7.102-0.341  c0.233,2.057,0.362,4.125,0.362,6.191c0,30.413-24.743,55.156-55.155,55.156c-1.777,0-5.56-0.276-5.562-0.277  c-13.604-1.359-26.168-7.724-35.377-17.918c-2.904-3.213-7.859-3.463-11.07-0.561s-3.462,7.858-0.561,11.069  c9.821,10.87,22.623,18.333,36.693,21.556c-6.742,19.917-25.456,33.693-47.116,33.693c-27.453,0-49.789-22.335-49.79-49.789v-27.372  c3.3,0.773,6.677,1.256,10.119,1.416c0.874,0.041,1.74,0.061,2.605,0.061c29.373,0,53.932-23.185,55.311-52.827  c0.201-4.324-3.141-7.991-7.465-8.192c-4.349-0.21-7.99,3.141-8.193,7.464c-1.018,21.882-19.646,38.869-41.53,37.839  c-3.737-0.173-7.366-0.865-10.847-2.038V247.76c5.425,4.613,11.747,8.178,18.717,10.466c5.708,1.872,11.57,2.802,17.408,2.802  c8.608,0,17.159-2.022,25.063-6.02c3.861-1.954,5.409-6.669,3.456-10.531c-1.953-3.863-6.665-5.409-10.531-3.456  c-9.525,4.819-20.36,5.641-30.509,2.311c-10.145-3.33-18.387-10.41-23.207-19.939c-0.122-0.241-0.279-0.542-0.397-0.883V65.461  c0.001-27.453,22.337-49.788,49.79-49.788c21.659,0,40.37,13.774,47.114,33.688c-30.144,6.929-52.608,33.164-54.762,64.149  c-12.553,3.138-24.079,10.615-32.066,22.022c-2.483,3.545-1.621,8.432,1.925,10.914c1.369,0.958,2.936,1.418,4.488,1.418  c2.47,0,4.902-1.165,6.426-3.343c12.643-18.057,37.619-22.462,55.677-9.819c3.547,2.482,8.432,1.621,10.914-1.925  c2.483-3.545,1.621-8.432-1.925-10.914c-9.023-6.317-19.287-9.561-29.552-9.982c2.933-24.492,22.166-44.633,47.036-48.112  c0.38-0.053,5.941-0.535,7.719-0.535c12.768,0,25.216,4.463,35.049,12.565c1.46,1.203,3.225,1.789,4.98,1.789  c2.26,0,4.504-0.973,6.052-2.853c2.752-3.341,2.276-8.28-1.065-11.032c-12.634-10.409-28.621-16.143-45.017-16.143  c-0.006,0-0.013,0-0.018,0C368.736,19.623,343.273,0,313.628,0c-24.873,0-46.552,13.945-57.626,34.426  C244.924,13.945,223.246,0,198.373,0c-6.132,0-12.206,0.85-18.051,2.523c-4.16,1.192-6.567,5.531-5.376,9.691  s5.528,6.566,9.691,5.376c4.442-1.273,9.063-1.917,13.735-1.917c27.453,0,49.789,22.335,49.791,49.789v115.82h-49.056  c-17.546,0-31.822-14.275-31.822-31.822v-14.547c0-4.328-3.508-7.837-7.837-7.837s-7.837,3.509-7.837,7.837v14.547  c0,26.188,21.307,47.495,47.495,47.495h49.056V314.63c-12.069,5.204-25.45,5.831-38.045,1.696  c-13.669-4.485-24.773-14.025-31.267-26.862c-1.953-3.863-6.668-5.409-10.531-3.456c-3.861,1.954-5.409,6.668-3.456,10.531  c8.382,16.573,22.718,28.89,40.366,34.68c7.13,2.341,14.456,3.501,21.75,3.501c7.167,0,14.296-1.147,21.181-3.374v67.468v47.723  c-0.002,27.454-22.338,49.789-49.791,49.789c-21.659,0-40.371-13.774-47.115-33.689c5.805-1.328,11.42-3.375,16.774-6.161  c3.84-1.998,5.333-6.729,3.334-10.569c-1.998-3.839-6.727-5.331-10.569-3.334c-6.496,3.38-13.48,5.376-20.777,5.981  c-1.564,0.131-3.123,0.211-4.64,0.211c-30.413,0-55.156-24.743-55.156-55.156c0-2.067,0.129-4.136,0.362-6.195  c2.358,0.22,4.731,0.345,7.101,0.345c23.891,0,45.864-10.944,60.282-30.027c2.61-3.453,1.926-8.368-1.528-10.977  c-3.454-2.61-8.37-1.925-10.977,1.528c-11.43,15.127-28.845,23.803-47.778,23.803c-3.225,0-6.458-0.258-9.61-0.766  c-0.396-0.065-1.926-0.346-2.318-0.425c-8.963-1.812-17.533-5.752-24.787-11.395c-3.416-2.657-8.338-2.044-10.998,1.373  c-2.657,3.416-2.043,8.339,1.373,10.998c7.113,5.534,15.234,9.772,23.814,12.46c-0.408,3.078-0.612,6.181-0.612,9.279  c0,39.055,31.774,70.83,70.83,70.83c0.005,0,0.012,0,0.017,0c7.867,27.94,33.33,47.563,62.976,47.563  c24.873,0,46.552-13.945,57.628-34.426c11.076,20.481,32.755,34.426,57.626,34.426c29.645,0,55.108-19.623,62.976-47.563  c0.005,0,0.011,0,0.018,0c39.055,0,70.829-31.774,70.829-70.83c0-3.097-0.205-6.196-0.611-9.274  c31.12-9.718,52.988-38.894,52.988-72.091C499.827,290.585,490.594,270.229,474.703,256.001z"/>
<path d="M27.848,312.244c0-18.336,8.372-35.478,22.591-46.8c10.261,5.83,21.721,9.153,33.555,9.727  c2.76,9.895,8.266,19.144,16.481,26.48c1.495,1.335,3.359,1.992,5.217,1.992c2.156,0,4.3-0.883,5.848-2.616  c2.883-3.228,2.603-8.183-0.625-11.066c-16.441-14.684-17.871-40.005-3.188-56.447c2.883-3.228,2.603-8.183-0.625-11.064  c-3.23-2.884-8.184-2.604-11.066,0.625c-9.272,10.382-13.913,23.308-14.097,36.241c-9.489-0.907-18.601-4.046-26.636-9.229  c-0.157-0.1-0.75-0.496-0.897-0.596c-16.632-11.154-26.56-29.746-26.56-49.735c0-28.371,20.15-53.037,47.913-58.649  c0.389-0.078,1.922-0.361,2.321-0.425c3.151-0.508,6.382-0.766,9.607-0.766c4.329,0,7.837-3.509,7.837-7.837  c0-4.328-3.508-7.837-7.837-7.837c-2.371,0-4.744,0.124-7.101,0.345c-0.233-2.06-0.362-4.127-0.362-6.195  c0-30.413,24.743-55.156,55.156-55.156c1.777,0,5.991,0.321,6.081,0.331c17.332,1.898,32.919,12.082,41.693,27.242  c1.453,2.51,4.085,3.912,6.79,3.912c1.332,0,2.682-0.341,3.918-1.055c3.746-2.168,5.026-6.963,2.857-10.709  c-9.879-17.066-26.494-29.219-45.454-33.595c2.186-6.404,5.667-12.324,10.287-17.401c2.912-3.202,2.678-8.159-0.524-11.071  c-3.202-2.912-8.157-2.679-11.071,0.522c-6.85,7.53-11.81,16.467-14.554,26.15c-0.008,0-0.017,0-0.024,0  c-39.055,0-70.83,31.774-70.83,70.83c0,3.096,0.205,6.196,0.611,9.274c-31.12,9.718-52.988,38.894-52.988,72.091  c0,21.658,9.234,42.014,25.125,56.244c-15.891,14.23-25.125,34.585-25.125,56.243c0,11.41,2.484,22.38,7.382,32.601  c1.347,2.81,4.151,4.451,7.073,4.451c1.136,0,2.289-0.248,3.381-0.772c3.903-1.87,5.552-6.552,3.68-10.454  C29.814,329.98,27.848,321.29,27.848,312.244z"/>
<g>
</g>
<g>
</g>
<g>
</g>
<g>
</g>
<g>
</g>
<g>
</g>
<g>
</g>
<g>
</g>
<g>
</g>
<g>
</g>
<g>
</g>
<g>
</g>
<g>
</g>
<g>
</g>
<g>
</g>
</svg>
