<?xml version="1.0" encoding="utf-8"?>
<!-- Generator: Adobe Illustrator 19.2.0, SVG Export Plug-In . SVG Version: 6.00 Build 0)  -->
<svg version="1.1" id="Layer_1" xmlns="http://www.w3.org/2000/svg" xmlns:xlink="http://www.w3.org/1999/xlink" x="0px" y="0px"
	 viewBox="0 0 500 500" style="enable-background:new 0 0 500 500;" xml:space="preserve">
<style type="text/css">
	.st0{fill:#ECF4F7;}
	.st1{fill:#1C1D21;}
	.st2{fill:#83E1E5;}
	.st3{fill:#AAB1BA;}
	.st4{fill:none;stroke:#1C1D21;stroke-width:10;stroke-linecap:round;stroke-linejoin:round;stroke-miterlimit:10;}
	.st5{fill:#FDDF7F;}
	.st6{fill:#FFFFFF;}
</style>
<g>
	<g>
		<g>
			<path class="st6" d="M460,458.5H40c-5.5,0-10-4.5-10-10V187.9H470v260.5C470,454,465.5,458.5,460,458.5z"/>
		</g>
	</g>
	<g>
		<g>
			<path class="st1" d="M459,463.5H55.7c-2.8,0-5-2.2-5-5c0-2.8,2.2-5,5-5H459c3.3,0,6-2.7,6-6V192.9H30c-2.8,0-5-2.2-5-5s2.2-5,5-5
				H470c2.8,0,5,2.2,5,5v259.5C475,456.3,467.8,463.5,459,463.5z"/>
		</g>
	</g>
	<g>
		<g>
			<path class="st3" d="M460,458.5H190.4v-60H470v50C470,454,465.5,458.5,460,458.5z"/>
		</g>
	</g>
	<g>
		<g>
			<path class="st1" d="M460,463.5H190.4c-2.8,0-5-2.2-5-5v-60c0-2.8,2.2-5,5-5H470c2.8,0,5,2.2,5,5v50
				C475,456.7,468.3,463.5,460,463.5z M195.4,453.5H460c2.8,0,5-2.2,5-5v-45H195.4V453.5z"/>
		</g>
	</g>
	<g>
		<g>
			<path class="st0" d="M190.4,458.5H40c-5.5,0-10-4.5-10-10V187.9h160.5V458.5z"/>
		</g>
	</g>
	<g>
		<g>
			<path class="st1" d="M30,294.5c-2.8,0-5-2.2-5-5v-9.6c0-2.8,2.2-5,5-5s5,2.2,5,5v9.6C35,292.3,32.7,294.5,30,294.5z"/>
		</g>
	</g>
	<g>
		<g>
			<path class="st1" d="M30,387.3c-2.8,0-5-2.2-5-5v-66.8c0-2.8,2.2-5,5-5s5,2.2,5,5v66.8C35,385,32.7,387.3,30,387.3z"/>
		</g>
	</g>
	<g>
		<g>
			<path class="st1" d="M190.4,463.5H41c-8.8,0-16-7.2-16-16v-29.8c0-2.8,2.2-5,5-5s5,2.2,5,5v29.8c0,3.3,2.7,6,6,6h144.4V192.9H35
				v62.4c0,2.8-2.2,5-5,5s-5-2.2-5-5v-67.4c0-2.8,2.2-5,5-5h160.5c2.8,0,5,2.2,5,5v270.5C195.4,461.2,193.2,463.5,190.4,463.5z"/>
		</g>
	</g>
	<g>
		<g>
			<path class="st2" d="M77.7,41.5C37.6,41.5,5,74.1,5,114.3v0v90.6c0,13.5,11,24.5,24.5,24.5l0,0c13.5,0,24.5-11,24.5-24.5
				c0,13.5,11,24.5,24.5,24.5h0c13.5,0,24.5-11,24.5-24.5c0,13.5,11,24.5,24.5,24.5h0c13.5,0,24.5-11,24.5-24.5
				c0,13.5,11,24.5,24.5,24.5l0,0c13.5,0,24.5-11,24.5-24.5c0,13.5,11,24.5,24.5,24.5l0,0c13.5,0,24.5-11,24.5-24.5
				c0,13.5,11,24.5,24.5,24.5l0,0c13.5,0,24.5-11,24.5-24.5c0,13.5,11,24.5,24.5,24.5l0,0c13.5,0,24.5-11,24.5-24.5
				c0,13.5,11,24.5,24.5,24.5h0c13.5,0,24.5-11,24.5-24.5c0,13.5,11,24.5,24.5,24.5h0c13.5,0,24.5-11,24.5-24.5
				c0,13.5,11,24.5,24.5,24.5l0,0c13.5,0,24.5-11,24.5-24.5v-90.6v0c0-40.2-32.6-72.7-72.7-72.7H77.7z"/>
		</g>
	</g>
	<g>
		<g>
			<path class="st1" d="M470.5,234.3c-10.2,0-19.2-5.2-24.5-13.1c-5.3,7.9-14.3,13.1-24.5,13.1s-19.2-5.2-24.5-13.1
				c-5.3,7.9-14.3,13.1-24.5,13.1s-19.2-5.2-24.5-13.1c-5.3,7.9-14.3,13.1-24.5,13.1s-19.2-5.2-24.5-13.1
				c-5.3,7.9-14.3,13.1-24.5,13.1s-19.2-5.2-24.5-13.1c-5.3,7.9-14.3,13.1-24.5,13.1s-19.2-5.2-24.5-13.1
				c-5.3,7.9-14.3,13.1-24.5,13.1s-19.2-5.2-24.5-13.1c-5.3,7.9-14.3,13.1-24.5,13.1s-19.2-5.2-24.5-13.1
				c-5.3,7.9-14.3,13.1-24.5,13.1s-19.2-5.2-24.5-13.1c-5.3,7.9-14.3,13.1-24.5,13.1C13.2,234.3,0,221.1,0,204.8v-90.6
				c0-42.9,34.9-77.7,77.7-77.7h344.5c42.9,0,77.7,34.9,77.7,77.7v90.6C500,221.1,486.8,234.3,470.5,234.3z M446,199.8
				c2.8,0,5,2.2,5,5c0,10.8,8.7,19.5,19.5,19.5s19.5-8.7,19.5-19.5v-90.6c0-37.3-30.4-67.7-67.7-67.7H77.7
				C40.4,46.5,10,76.9,10,114.3v90.6c0,10.8,8.7,19.5,19.5,19.5S49,215.6,49,204.8c0-2.8,2.2-5,5-5s5,2.2,5,5
				c0,10.8,8.7,19.5,19.5,19.5S98,215.6,98,204.8c0-2.8,2.2-5,5-5s5,2.2,5,5c0,10.8,8.7,19.5,19.5,19.5s19.5-8.7,19.5-19.5
				c0-2.8,2.2-5,5-5s5,2.2,5,5c0,10.8,8.7,19.5,19.5,19.5s19.5-8.7,19.5-19.5c0-2.8,2.2-5,5-5s5,2.2,5,5c0,10.8,8.7,19.5,19.5,19.5
				s19.5-8.7,19.5-19.5c0-2.8,2.2-5,5-5s5,2.2,5,5c0,10.8,8.7,19.5,19.5,19.5s19.5-8.7,19.5-19.5c0-2.8,2.2-5,5-5s5,2.2,5,5
				c0,10.8,8.7,19.5,19.5,19.5s19.5-8.7,19.5-19.5c0-2.8,2.2-5,5-5s5,2.2,5,5c0,10.8,8.7,19.5,19.5,19.5s19.5-8.7,19.5-19.5
				c0-2.8,2.2-5,5-5s5,2.2,5,5c0,10.8,8.7,19.5,19.5,19.5s19.5-8.7,19.5-19.5C441,202.1,443.2,199.8,446,199.8z"/>
		</g>
	</g>
	<g>
		<g>
			<path class="st5" d="M490.8,90.1c-10-28.3-36.9-48.6-68.6-48.6H77.7C46,41.5,19.1,61.8,9.2,90.1H490.8z"/>
		</g>
	</g>
	<g>
		<g>
			<path class="st1" d="M490.8,95.1H9.2c-1.6,0-3.1-0.8-4.1-2.1c-0.9-1.3-1.2-3-0.6-4.5c10.9-31,40.4-51.9,73.3-51.9h344.5
				c32.9,0,62.4,20.9,73.3,51.9c0.5,1.5,0.3,3.2-0.6,4.5C494,94.3,492.5,95.1,490.8,95.1z M16.6,85.1h466.7
				c-11.1-23.3-34.9-38.6-61.1-38.6H77.7C51.5,46.5,27.8,61.8,16.6,85.1z"/>
		</g>
	</g>
	<g>
		<g>
			<g>
				<path class="st1" d="M54,209.8c-2.8,0-5-2.2-5-5v-41.2c0-2.8,2.2-5,5-5s5,2.2,5,5v41.2C59,207.6,56.8,209.8,54,209.8z"/>
			</g>
		</g>
		<g>
			<g>
				<path class="st1" d="M103,209.8c-2.8,0-5-2.2-5-5v-41.2c0-2.8,2.2-5,5-5c2.8,0,5,2.2,5,5v41.2C108,207.6,105.8,209.8,103,209.8z
					"/>
			</g>
		</g>
		<g>
			<g>
				<path class="st1" d="M152,209.8c-2.8,0-5-2.2-5-5v-41.2c0-2.8,2.2-5,5-5s5,2.2,5,5v41.2C157,207.6,154.8,209.8,152,209.8z"/>
			</g>
		</g>
		<g>
			<g>
				<path class="st1" d="M201,209.8c-2.8,0-5-2.2-5-5v-41.2c0-2.8,2.2-5,5-5c2.8,0,5,2.2,5,5v41.2C206,207.6,203.8,209.8,201,209.8z
					"/>
			</g>
		</g>
		<g>
			<g>
				<path class="st1" d="M250,209.8c-2.8,0-5-2.2-5-5v-41.2c0-2.8,2.2-5,5-5s5,2.2,5,5v41.2C255,207.6,252.8,209.8,250,209.8z"/>
			</g>
		</g>
		<g>
			<g>
				<path class="st1" d="M299,209.8c-2.8,0-5-2.2-5-5v-41.2c0-2.8,2.2-5,5-5s5,2.2,5,5v41.2C304,207.6,301.8,209.8,299,209.8z"/>
			</g>
		</g>
		<g>
			<g>
				<path class="st1" d="M348,209.8c-2.8,0-5-2.2-5-5v-41.2c0-2.8,2.2-5,5-5s5,2.2,5,5v41.2C353,207.6,350.8,209.8,348,209.8z"/>
			</g>
		</g>
		<g>
			<g>
				<path class="st1" d="M397,209.8c-2.8,0-5-2.2-5-5v-41.2c0-2.8,2.2-5,5-5c2.8,0,5,2.2,5,5v41.2C402,207.6,399.8,209.8,397,209.8z
					"/>
			</g>
		</g>
		<g>
			<g>
				<path class="st1" d="M445.9,209.8c-2.8,0-5-2.2-5-5v-41.2c0-2.8,2.2-5,5-5c2.8,0,5,2.2,5,5v41.2
					C450.9,207.6,448.7,209.8,445.9,209.8z"/>
			</g>
		</g>
	</g>
	<g>
		<g>
			<g>
				<circle class="st0" cx="75.7" cy="328.7" r="14.4"/>
			</g>
		</g>
		<g>
			<g>
				<path class="st1" d="M75.7,348.2c-10.7,0-19.4-8.7-19.4-19.4c0-10.7,8.7-19.4,19.4-19.4c10.7,0,19.4,8.7,19.4,19.4
					C95.1,339.5,86.4,348.2,75.7,348.2z M75.7,319.3c-5.2,0-9.4,4.2-9.4,9.4c0,5.2,4.2,9.4,9.4,9.4s9.4-4.2,9.4-9.4
					C85.1,323.5,80.9,319.3,75.7,319.3z"/>
			</g>
		</g>
		<g>
			<g>
				<path class="st1" d="M114,319.3H75.7c-2.8,0-5-2.2-5-5s2.2-5,5-5H114c2.8,0,5,2.2,5,5S116.8,319.3,114,319.3z"/>
			</g>
		</g>
	</g>
	<g>
		<g>
			<path class="st1" d="M273.3,326.5c-1.3,0-2.6-0.5-3.5-1.5c-2-2-2-5.1,0-7.1l24.6-24.6c2-2,5.1-2,7.1,0c2,2,2,5.1,0,7.1L276.8,325
				C275.8,326,274.6,326.5,273.3,326.5z"/>
		</g>
	</g>
	<g>
		<g>
			<path class="st1" d="M368.1,283.2c-1.3,0-2.6-0.5-3.5-1.5c-2-2-2-5.1,0-7.1l6.8-6.8c2-2,5.1-2,7.1,0c2,2,2,5.1,0,7.1l-6.8,6.8
				C370.7,282.7,369.4,283.2,368.1,283.2z"/>
		</g>
	</g>
	<g>
		<g>
			<path class="st1" d="M284.4,367c-1.3,0-2.6-0.5-3.5-1.5c-2-2-2-5.1,0-7.1l65-65c2-2,5.1-2,7.1,0c2,2,2,5.1,0,7.1l-65,65
				C286.9,366.5,285.6,367,284.4,367z"/>
		</g>
	</g>
</g>
</svg>
